<?xml version="1.0" encoding="UTF-8"?>
<!DOCTYPE svg PUBLIC "-//W3C//DTD SVG 1.1//EN" "http://www.w3.org/Graphics/SVG/1.1/DTD/svg11.dtd">
<!-- Creator: CorelDRAW (Evaluation Version) -->
<svg xmlns="http://www.w3.org/2000/svg" xml:space="preserve" width="1in" height="1in" version="1.1" style="shape-rendering:geometricPrecision; text-rendering:geometricPrecision; image-rendering:optimizeQuality; fill-rule:evenodd; clip-rule:evenodd"
viewBox="0 0 1000 1000"
 xmlns:xlink="http://www.w3.org/1999/xlink"
 xmlns:xodm="http://www.corel.com/coreldraw/odm/2003">
 <defs>
  <style type="text/css">
   <![CDATA[
    .fil4 {fill:#FEFEFE;fill-rule:nonzero}
    .fil2 {fill:#EEC48B;fill-rule:nonzero}
    .fil7 {fill:#E8E7E8;fill-rule:nonzero}
    .fil0 {fill:#E6AD5D;fill-rule:nonzero}
    .fil1 {fill:#D6853D;fill-rule:nonzero}
    .fil8 {fill:#D2D4D5;fill-rule:nonzero}
    .fil5 {fill:#4D4C4E;fill-rule:nonzero}
    .fil6 {fill:#363435;fill-rule:nonzero}
    .fil3 {fill:#282828;fill-rule:nonzero}
   ]]>
  </style>
 </defs>
 <g id="Layer_x0020_1">
  <metadata id="CorelCorpID_0Corel-Layer"/>
  <g id="_1523670153840">
   <path class="fil0" d="M923.22 499.91c0,228.98 -185.63,414.62 -414.62,414.62 -228.99,0 -414.62,-185.64 -414.62,-414.62 0,-228.99 185.63,-414.62 414.62,-414.62 228.99,0 414.62,185.63 414.62,414.62z"/>
   <path class="fil1" d="M542.61 748.85c-14.19,-1.51 -18.44,-8.4 -18.44,-18 0,-4.46 0.99,-9.9 2.48,-15.85l20.31 -94.59c0.99,-3.96 0.99,-7.93 0.99,-11.89 0,-12.42 -4.24,-24.21 -10.94,-34.11 16.41,11.1 29.34,30.82 29.34,52.51 0,3.96 0,7.93 -0.99,11.89l-20.3 94.59c-1.44,5.78 -2.39,11.06 -2.44,15.44z"/>
   <path class="fil1" d="M646.01 670.93c10.41,-46.56 33.18,-102.52 60.91,-102.52 10.99,0 15.19,9.48 16.64,18.62 -22.56,1.95 -41.68,40.46 -53.28,79.76 -7.53,2.56 -15.66,4.04 -24.27,4.14z"/>
   <path class="fil1" d="M426.6 572.87l22.15 -103.79 23 -3.11 -19.5 91.33c-8.78,4.38 -17.43,9.74 -25.65,15.56z"/>
   <path class="fil2" d="M922.99 485.78c-0.17,-5.05 -0.43,-10.05 -0.78,-15.06 3.69,2.79 6.09,7.09 6.09,13 0,0.54 -0.06,1.06 -0.08,1.59l-0.33 -0.02c-1.53,0 -3.18,0.15 -4.9,0.49z"/>
   <path class="fil1" d="M888.76 546.63l-22.36 0 8.41 -39.13c6.93,-33.19 23.77,-40.61 34.67,-40.61 4.76,0 9.3,1.26 12.73,3.84 0.35,5 0.6,10.01 0.78,15.06 -10.54,2.1 -23.81,11.59 -29.78,40.12l-4.45 20.73z"/>
   <path class="fil1" d="M202.62 745.53c-22.93,-11.88 -29.08,-39.18 -29.08,-85.5 0,-88.16 39.11,-213.95 100.04,-213.95 19.73,0 28.13,10.56 31.67,20.44 -3.74,-1.25 -8.07,-2.04 -13.26,-2.04 -60.92,0 -100.04,125.8 -100.04,213.95 0,30.06 2.62,52.05 10.68,67.09z"/>
   <path class="fil1" d="M662.61 754.86c-12.27,-5.26 -22.05,-16.79 -22.05,-38.87 0,-5.94 0.49,-13.37 1.48,-21.3 7.96,-1.01 16.44,-2.91 25.02,-5.54 29.71,-1.32 53.44,-19.02 65.93,-41.01 12.69,-14.84 20.98,-33 20.98,-54.49 0,-9.8 -2.02,-18.02 -5.55,-24.99 15.52,8.16 23.95,22.47 23.95,43.4 0,60.43 -64.87,95.08 -111.94,101.03 -0.98,7.92 -1.48,15.35 -1.48,21.29 0,8.19 1.33,14.94 3.65,20.46z"/>
   <path class="fil2" d="M704.28 873.85c-3.6,-0.22 -6.95,-1.44 -9.8,-3.22 3.8,-1.91 7.58,-3.88 11.31,-5.91 -0.84,2.86 -1.35,5.9 -1.52,9.13z"/>
   <path class="fil1" d="M694.48 870.63c-5.32,-3.33 -8.85,-8.63 -8.85,-13 0,-2.96 0.39,-5.72 0.94,-8.38 10.61,-15.28 29.06,-24.75 51.32,-32.71l-4.21 18.8 -0.01 0.01c-13.99,7.33 -24.13,16.6 -27.87,29.37 -3.73,2.02 -7.52,4 -11.31,5.91z"/>
   <path class="fil1" d="M532.17 812.65c-26.88,0 -45.85,-8.37 -55.04,-25.85 9.7,5.01 22.02,7.44 36.64,7.44 16.17,0 35.35,-11.61 53.87,-26.7 5.69,-0.08 11.87,-2.48 18.24,-6.15 3.28,5.41 7.23,10.3 11.81,14.58 -21.92,19.68 -45.93,36.69 -65.52,36.69z"/>
   <path class="fil1" d="M817.78 776.07l44.65 -209.65 36.65 0 0.24 -1.4 18.78 0c-1.06,6.65 -2.25,13.26 -3.61,19.8l-33.65 0 -32.51 152.65c-9.44,13.46 -19.61,26.37 -30.54,38.6z"/>
   <path class="fil1" d="M665.4 812.65c-27.19,0 -47.15,-11.91 -59.33,-30 10.99,7.3 24.65,11.59 40.93,11.59 24.7,0 46.85,-7.65 66.48,-19.76 12.03,-3.85 25.78,-12.04 38.33,-23.06l-6.89 32.5c-5.36,4.09 -10.91,7.87 -16.71,11.22 -12.45,4.11 -23.94,8.52 -33.87,13.84 -9.26,2.29 -18.87,3.67 -28.94,3.67z"/>
   <path class="fil1" d="M332.59 553.13c-7.93,0 -18.83,-1.98 -28.23,-12.87 2.9,-0.81 5.62,-2.87 8.11,-5.59 0.57,0.02 1.17,0.06 1.72,0.06 25.26,0 34.67,-19.31 34.67,-45.56 0,-13.51 -3.26,-24.59 -8.85,-33.65 16.58,10.53 27.25,27.33 27.25,52.05 0,26.25 -9.41,45.56 -34.67,45.56z"/>
   <path class="fil1" d="M397.96 812.65l-71.32 0 3.93 -18.41 48.99 0 42.59 -200.08c8.04,-5.62 15.51,-8.85 24.36,-9.91l-1.5 7.02c3.53,-2.5 7.16,-4.88 10.83,-7.18 9.01,1.22 15.78,7.91 18.47,18.41 -1.01,-0.14 -2,-0.34 -3.05,-0.34 -11.89,0 -20.8,3.47 -30.71,10.41l-42.58 200.08z"/>
   <path class="fil1" d="M239.18 814.91c-6.87,-5.88 -13.55,-11.96 -20.02,-18.28 30.91,-2.19 66.86,-11.74 93.94,-38.8 1.08,-0.56 2.21,-1.04 3.26,-1.64l-8.11 38.05 0.24 0c-22.15,13.32 -46.96,18.92 -69.3,20.67z"/>
   <path class="fil3" d="M322.15 695.72c-18.33,31.7 -54.48,47.54 -92.61,47.54 -53.49,0 -65.37,-27.73 -65.37,-92.61 0,-88.15 39.13,-213.95 100.04,-213.95 31.7,0 34.17,27.24 34.17,35.16 0,12.38 -9.41,37.15 -21.79,40.61 9.41,10.89 20.3,12.87 28.23,12.87 25.26,0 34.67,-19.31 34.67,-45.56 0,-48.04 -40.11,-66.37 -86.17,-66.37 -131.74,0 -166.9,140.16 -166.9,248.13 0,101.53 57.94,126.29 108.46,126.29 46.56,0 112.43,-14.86 138.67,-87.17l-11.39 -4.95zm215.44 -84.69c0.99,-3.96 0.99,-7.93 0.99,-11.89 0,-33.19 -30.21,-61.91 -56.95,-61.91 -21.3,0 -44.08,11.89 -64.39,26.25l26.74 -125.3 -73.3 9.91 -71.81 336.78 71.32 0 42.59 -200.08c9.91,-6.93 18.82,-10.4 30.71,-10.4 13.37,0 22.78,11.39 22.78,29.22 0,3.96 -0.5,8.42 -1.48,12.88l-18.82 89.15c-1.98,9.41 -2.97,17.33 -2.97,25.26 0,37.15 22.78,53.98 61.41,53.98 38.63,0 94.59,-65.87 117.38,-88.65l-16.84 0c-19.81,15.85 -45.56,43.58 -65.37,43.58 -19.31,0 -24.76,-7.43 -24.76,-18.33 0,-4.46 0.99,-9.91 2.48,-15.85l20.31 -94.59z"/>
   <path class="fil3" d="M631.19 706.61c0,-5.94 0.5,-13.37 1.48,-21.3 47.05,-5.94 111.93,-40.61 111.93,-101.03 0,-34.67 -22.78,-51.51 -63.39,-51.51 -90.13,0 -116.88,110.44 -116.88,173.34 0,42.59 25.76,78.75 73.3,78.75 63.89,0 111.43,-50.02 139.66,-101.03l-22.28 0c-17.33,36.65 -58.94,65.37 -83.2,65.37 -19.31,0 -40.61,-9.91 -40.61,-42.59zm83.7 -119.85c-0.49,35.16 -32.69,74.29 -78.25,74.78 10.4,-46.56 33.19,-102.52 60.92,-102.52 14.86,0 17.33,17.33 17.33,27.74zm226.33 -99.05c0.99,-5.94 1.48,-12.38 1.48,-20.31 0,-32.19 -28.23,-53.49 -58.44,-53.49 -32.69,0 -75.28,13.37 -90.14,84.19l-59.93 282.8c-47.05,14.36 -85.18,28.72 -85.18,74.29 0,32.19 28.23,53.49 58.44,53.49 32.19,0 73.3,-13.37 88.65,-84.19l56.95 -267.44 36.65 0 3.47 -19.81 -36.15 0 8.42 -39.13c6.93,-33.18 23.77,-40.61 34.67,-40.61 9.9,0 18.82,5.45 18.82,16.84 0,4.46 -0.5,8.42 -0.99,13.37l23.28 0zm-264.96 360.55c0,-26.74 23.28,-40.61 54.48,-51.01l-6.44 28.72c-6.44,29.22 -17.83,38.63 -28.23,38.63 -10.89,0 -19.81,-9.41 -19.81,-16.34z"/>
   <polygon class="fil4" points="310.07,825.69 304.65,825.69 312.93,841.35 312.93,850.21 317.83,850.21 317.83,841.59 326.25,825.69 320.87,825.69 315.52,837 315.41,837 "/>
   <path class="fil4" d="M347.78 835.76c0,-3 -0.93,-5.48 -2.86,-7.45 -1.9,-1.96 -4.38,-2.96 -7.42,-2.96 -3.04,0 -5.49,1 -7.35,2.96 -1.9,1.97 -2.83,4.45 -2.83,7.45l0 4.38c0,3.04 0.93,5.52 2.83,7.48 1.9,1.97 4.35,2.93 7.35,2.93 3.07,0 5.52,-0.96 7.42,-2.93 1.93,-1.96 2.86,-4.45 2.86,-7.48l0 -4.38zm-4.9 4.38c0,1.96 -0.48,3.55 -1.42,4.8 -0.96,1.2 -2.28,1.83 -3.96,1.83 -1.66,0 -2.93,-0.62 -3.87,-1.83 -0.93,-1.24 -1.41,-2.83 -1.41,-4.8l0 -4.45c0,-1.93 0.45,-3.48 1.38,-4.72 0.93,-1.21 2.21,-1.83 3.9,-1.83 1.65,0 2.96,0.62 3.93,1.83 0.97,1.24 1.45,2.83 1.45,4.72l0 4.45zm23.22 -14.45l0 16.25c0,1.62 -0.45,2.83 -1.31,3.62 -0.9,0.8 -2.11,1.21 -3.62,1.21 -1.52,0 -2.72,-0.41 -3.59,-1.21 -0.86,-0.79 -1.28,-2 -1.28,-3.62l0 -16.25 -4.93 0 0 16.28c0,2.73 0.9,4.87 2.69,6.35 1.79,1.48 4.17,2.24 7.11,2.24 2.93,0 5.31,-0.76 7.14,-2.24 1.83,-1.48 2.72,-3.62 2.72,-6.35l0 -16.28 -4.93 0z"/>
   <path class="fil4" d="M384.94 840.42c1.21,0 2.14,0.35 2.83,1.04 0.65,0.65 1,1.62 1,2.83l0 1.72c0,0.76 0.07,1.56 0.17,2.42 0.14,0.83 0.44,1.45 0.89,1.79l5.07 0 0 -0.34c-0.45,-0.38 -0.76,-0.93 -0.96,-1.66 -0.17,-0.76 -0.28,-1.48 -0.28,-2.17l0 -1.79c0,-1.45 -0.31,-2.69 -0.93,-3.69 -0.66,-1 -1.69,-1.72 -3.14,-2.14 1.28,-0.56 2.24,-1.31 2.9,-2.21 0.69,-0.93 1,-2 1,-3.28 0,-2.28 -0.8,-4.07 -2.35,-5.35 -1.59,-1.28 -3.76,-1.89 -6.59,-1.89l-9.25 0 0 24.52 4.94 0 0 -9.8 4.69 0zm-4.69 -10.94l4.31 0c1.34,0 2.35,0.35 3.04,1 0.65,0.66 1,1.56 1,2.66 0,1.17 -0.35,2.04 -1,2.62 -0.69,0.59 -1.72,0.86 -3.11,0.86l-4.24 0 0 -7.14z"/>
   <polygon class="fil4" points="423.69,825.69 404.92,825.69 404.92,829.48 411.82,829.48 411.82,850.21 416.72,850.21 416.72,829.48 423.69,829.48 "/>
   <path class="fil4" d="M439.55 850.21l4.97 0 -8.42 -24.52 -5.04 0 -8.42 24.52 4.97 0 1.65 -5.28 8.63 0 1.65 5.28zm-6 -18.8l0.1 0 3.04 9.73 -6.21 0 3.07 -9.73zm32.08 6.21l-9.24 0 0 3.42 4.35 0 0 4.52c-0.38,0.35 -0.9,0.62 -1.59,0.86 -0.69,0.24 -1.62,0.35 -2.76,0.35 -1.62,0 -2.9,-0.59 -3.87,-1.72 -0.96,-1.17 -1.45,-2.69 -1.45,-4.56l0 -5.14c0,-1.83 0.48,-3.31 1.38,-4.48 0.93,-1.14 2.14,-1.72 3.66,-1.72 1.41,0 2.52,0.38 3.24,1.14 0.76,0.76 1.17,1.8 1.24,3.07l4.66 0 0.03 -0.11c-0.03,-2.34 -0.86,-4.28 -2.45,-5.72 -1.59,-1.45 -3.86,-2.17 -6.86,-2.17 -2.87,0 -5.21,0.93 -7.04,2.8 -1.83,1.86 -2.76,4.28 -2.76,7.24l0 5.14c0,2.97 0.96,5.38 2.86,7.24 1.9,1.86 4.35,2.8 7.35,2.8 2.34,0 4.31,-0.38 5.83,-1.14 1.56,-0.72 2.69,-1.59 3.42,-2.56l0 -9.24z"/>
   <polygon class="fil4" points="474.79,825.69 469.85,825.69 469.85,850.21 485.69,850.21 485.69,846.42 474.79,846.42 "/>
   <polygon class="fil4" points="493.77,825.69 488.83,825.69 488.83,850.21 493.77,850.21 "/>
   <path class="fil4" d="M518.48 825.69l-4.9 0 0 16.73 -0.1 0 -9.9 -16.73 -4.93 0 0 24.52 4.93 0 0 -16.73 0.1 -0.04 9.9 16.76 4.9 0 0 -24.52zm19.67 9.97l-10.14 0 0 -6.18 11.83 0 0 -3.79 -16.77 0 0 24.52 16.8 0 0 -3.8 -11.87 0 0 -6.96 10.14 0 0 -3.8z"/>
   <polygon class="fil4" points="571.31,825.69 566.41,825.69 566.41,836.24 556.4,836.24 556.4,825.69 551.47,825.69 551.47,850.21 556.4,850.21 556.4,840.04 566.41,840.04 566.41,850.21 571.31,850.21 "/>
   <polygon class="fil4" points="590.96,835.66 580.82,835.66 580.82,829.48 592.65,829.48 592.65,825.69 575.89,825.69 575.89,850.21 592.69,850.21 592.69,846.42 580.82,846.42 580.82,839.45 590.96,839.45 "/>
   <path class="fil4" d="M605.33 840.42c1.2,0 2.14,0.35 2.83,1.04 0.66,0.65 1,1.62 1,2.83l0 1.72c0,0.76 0.07,1.56 0.17,2.42 0.14,0.83 0.45,1.45 0.9,1.79l5.07 0 0 -0.34c-0.45,-0.38 -0.76,-0.93 -0.96,-1.66 -0.17,-0.76 -0.28,-1.48 -0.28,-2.17l0 -1.79c0,-1.45 -0.31,-2.69 -0.93,-3.69 -0.66,-1 -1.69,-1.72 -3.14,-2.14 1.28,-0.56 2.24,-1.31 2.9,-2.21 0.69,-0.93 1,-2 1,-3.28 0,-2.28 -0.8,-4.07 -2.35,-5.35 -1.59,-1.28 -3.76,-1.89 -6.59,-1.89l-9.24 0 0 24.52 4.93 0 0 -9.8 4.69 0zm-4.69 -10.94l4.31 0c1.35,0 2.35,0.35 3.04,1 0.65,0.66 1,1.56 1,2.66 0,1.17 -0.35,2.04 -1,2.62 -0.69,0.59 -1.73,0.86 -3.11,0.86l-4.24 0 0 -7.14z"/>
   <polygon class="fil4" points="633.59,835.66 623.44,835.66 623.44,829.48 635.28,829.48 635.28,825.69 618.51,825.69 618.51,850.21 635.31,850.21 635.31,846.42 623.44,846.42 623.44,839.45 633.59,839.45 "/>
   <path class="fil3" d="M808.85 352.44l-3.49 -9.29 -0.65 -1.3c-7.16,-11.85 -21.37,-17.15 -32.26,-17.15 -10.28,0 -203.19,0.57 -203.2,0.57l-10.88 0.04 0 1.67 -220.77 0c-55.81,0 -94.74,11.76 -113.04,18.79l-10.95 4.97c-7.35,3.34 -7.73,13.63 -0.65,17.5l1.78 0.97c1.83,0.99 18.93,10.02 55.18,20.87 5.69,1.7 11.85,3.44 18.49,5.2 18.27,4.82 38.04,9.18 58.76,12.94 64.74,11.75 138.37,17.7 218.85,17.7l10.92 0 0 -22.29c1.39,0.2 2.89,0.31 4.5,0.31 8.59,0 14.68,-5.09 19.12,-8.82 1.24,-1.04 2.5,-2.12 3.87,-3.09 3.08,-2.21 5.01,-2.51 6.63,-2.51 2.31,0 4.83,0.35 8.4,1.16 1.87,0.43 3.81,0.93 5.91,1.47 10.84,2.77 25.7,6.58 51,6.58 25.91,0 42.85,-3.91 55.26,-6.77 5.9,-1.36 10.56,-2.44 13.7,-2.44 5.09,0 8.28,1.02 12.31,2.31 4.55,1.44 10.19,3.25 18.23,3.25 19.4,0 33.48,-15.52 33.48,-36.91 0,-1.92 -0.16,-3.86 -0.51,-5.74z"/>
   <path class="fil4" d="M569.3 337.91c0,0 -190.59,0 -231.7,0 -74.81,0 -117.64,21.7 -117.64,21.7 0,0 101.65,55.39 346.06,55.39l0 -23.98 3.28 -5.99 0 -47.12z"/>
   <path class="fil4" d="M228.96 355.78c-5.91,2.27 -9,3.83 -9,3.83 0,0 101.65,55.39 346.06,55.39l0 -15.24 -0.14 1.54c-186.25,0 -292.96,-29.59 -336.91,-45.52z"/>
   <path class="fil5" d="M569.3 336.2l0 50.54c0,0 2,6.28 12.13,6.28 10.14,0 15.28,-14.42 29.62,-14.42 14.35,0 26.77,9.21 65.31,9.21 38.55,0 56.74,-9.21 68.95,-9.21 13.43,0 17.7,5.57 30.55,5.57 12.85,0 22.56,-10.28 22.56,-25.98 0,-15.7 -15.71,-22.55 -25.99,-22.55 -10.28,0 -203.15,0.57 -203.15,0.57z"/>
   <path class="fil6" d="M775.87 375.6c-12.84,0 -17.12,-5.57 -30.55,-5.57 -12.21,0 -30.41,9.21 -68.95,9.21 -38.55,0 -50.97,-9.21 -65.31,-9.21 -14.34,0 -19.48,14.42 -29.62,14.42l-0.3 -0.01c-6.59,-0.08 -11.83,-5.52 -11.83,-12.1l0 14.39c0,0 2,6.28 12.13,6.28 10.14,0 15.28,-14.42 29.62,-14.42 14.35,0 26.77,9.21 65.31,9.21 38.55,0 56.74,-9.21 68.95,-9.21 13.43,0 17.7,5.57 30.55,5.57 12.85,0 22.57,-10.28 22.57,-25.98 0,-1.33 -0.13,-2.6 -0.35,-3.82 -1.76,12.99 -10.72,21.24 -22.22,21.24z"/>
   <path class="fil7" d="M601.42 347.76c-3.55,0 -6.42,2.88 -6.42,6.43 0,3.55 2.87,6.43 6.42,6.43 3.55,0 6.43,-2.88 6.43,-6.43 0,-3.55 -2.87,-6.43 -6.43,-6.43z"/>
   <path class="fil7" d="M677.22 347.76c-3.55,0 -6.43,2.88 -6.43,6.43 0,3.55 2.88,6.43 6.43,6.43 3.55,0 6.43,-2.88 6.43,-6.43 0,-3.55 -2.88,-6.43 -6.43,-6.43z"/>
   <path class="fil7" d="M753.03 347.76c-3.55,0 -6.43,2.88 -6.43,6.43 0,3.55 2.88,6.43 6.43,6.43 3.55,0 6.43,-2.88 6.43,-6.43 0,-3.55 -2.88,-6.43 -6.43,-6.43z"/>
   <path class="fil4" d="M621.45 166.59c-9.1,-34.43 -40.46,-59.82 -77.76,-59.82 -24.48,0 -46.41,10.94 -61.16,28.2 -15.42,18.04 -38.51,27.39 -62.24,26.54l-0.93 -0.02c-28.27,-0.52 -52.5,21.96 -53.99,50.2 -1.61,30.62 22.74,55.94 53,55.94 6.63,0 12.96,-1.22 18.81,-3.43 25.55,-9.7 53.99,-10.21 79.77,-1.12 8.37,2.94 17.37,4.55 26.74,4.55 10.84,0 21.17,-2.16 30.6,-6.04 7.96,4.16 17.09,6.4 26.78,6 28.43,-1.19 51.3,-25.46 50.83,-53.91 -0.34,-20.83 -12.71,-38.7 -30.45,-47.08z"/>
   <path class="fil4" d="M403.66 174.63c-5.37,1.37 -10.42,4.14 -14.56,7.91 -4.16,3.76 -7.39,8.54 -9.25,13.77 -1.85,5.22 -2.34,10.91 -0.91,16.09 1.97,-4.99 4.07,-9.35 6.68,-13.3 2.58,-3.96 5.58,-7.45 8.97,-10.54 3.39,-3.09 7.16,-5.75 11.33,-7.96 4.18,-2.25 8.7,-3.93 13.85,-5.52 -5.06,-1.8 -10.75,-1.83 -16.1,-0.46z"/>
   <path class="fil4" d="M518 122.06c-8.39,2.64 -16.22,7.28 -22.72,13.32 -1.59,1.55 -3.16,3.12 -4.59,4.81l-4 4.65c-2.65,3 -5.52,5.81 -8.47,8.57 -5.99,5.46 -12.62,10.28 -19.75,14.99 8.4,-1.57 16.47,-5.09 23.65,-9.98 3.63,-2.4 7.02,-5.19 10.15,-8.24 1.54,-1.48 3.1,-3.27 4.44,-4.66 1.3,-1.47 2.72,-2.84 4.14,-4.2 5.75,-5.38 12.31,-9.82 19.48,-13.38 7.22,-3.47 15.02,-5.88 23.37,-7.61 -8.38,-1.65 -17.32,-0.94 -25.69,1.72z"/>
   <path class="fil4" d="M601.07 267.59c-9.69,0.41 -18.82,-1.83 -26.78,-6 -9.43,3.89 -19.76,6.04 -30.6,6.04 -9.37,0 -18.37,-1.61 -26.74,-4.55 -25.78,-9.09 -54.22,-8.59 -79.77,1.12 -5.85,2.22 -12.18,3.43 -18.81,3.43 -4.19,0 -8.25,-0.53 -12.17,-1.45l5.68 36.83 193.43 0 5.69 -36.83c-3.22,0.77 -6.53,1.26 -9.93,1.41z"/>
   <path class="fil8" d="M418.38 267.63c6.63,0 12.96,-1.22 18.81,-3.43 25.55,-9.7 53.99,-10.21 79.77,-1.12 8.37,2.94 17.37,4.55 26.74,4.55 10.84,0 21.17,-2.16 30.6,-6.04 7.96,4.16 17.09,6.4 26.78,6 28.43,-1.19 51.3,-25.46 50.83,-53.91 -0.34,-20.83 -12.71,-38.7 -30.45,-47.08 -0.15,-0.56 -0.35,-1.1 -0.52,-1.66 -5.05,-0.52 -10.13,-0.79 -15.22,-0.79 -9.36,0 -18.56,2.44 -26.69,7.08l-9.28 5.3c0,0 49.1,-0.88 52.2,32.73 3.75,40.76 -23,38.04 -23,38.04l10.62 -20.35c0,0 -32.29,24.33 -59.72,23.88 -27.42,-0.44 -42.02,-15.48 -70.77,-11.5l7.96 -22.56c0,0 -23,32.73 -50.42,32.73 0,0 -33.4,11.28 -55.74,-11.06 -12.3,-12.3 -14.8,-25 -14.57,-33.94 -0.46,2.35 -0.81,4.73 -0.94,7.19 -1.61,30.62 22.74,55.94 53,55.94z"/>
   <path class="fil8" d="M601.07 267.59c-9.69,0.41 -18.82,-1.83 -26.78,-6 -9.43,3.89 -19.76,6.04 -30.6,6.04 -9.37,0 -18.37,-1.61 -26.74,-4.55 -25.77,-9.09 -54.22,-8.59 -79.77,1.12 -5.85,2.22 -12.18,3.43 -18.81,3.43 -4.19,0 -8.25,-0.53 -12.17,-1.45l2.39 15.54c3.18,0.59 6.43,0.95 9.77,0.95 6.96,0 13.59,-1.33 19.68,-3.77 25.2,-10.09 53.3,-9.81 78.9,-0.79 6.02,2.13 12.38,3.52 18.97,4.15l0 2.96 -46.66 0c-2.25,0 -4.07,1.83 -4.07,4.07 0,2.25 1.82,4.07 4.07,4.07l37.47 0c5.07,0 9.19,4.11 9.19,9.19l69.39 0 1.41 -9.19 1.23 -8.09 0.55 -3.59 0.11 -0.02 2.39 -15.5c-3.22,0.77 -6.53,1.26 -9.93,1.41z"/>
   <path class="fil8" d="M620.91 164.85c-8.61,-29.81 -33.97,-52.47 -65.24,-57.14l0.53 0.99c0,0 40.69,16.8 40.69,54.25 0,0 10.78,-0.53 24.02,1.9z"/>
   <path class="fil3" d="M610.95 262l-0.89 0.22c-1.53,0.37 -3.06,0.65 -4.58,0.87 -1.3,0.18 -2.59,0.29 -3.92,0.37l-0.65 0.06 -0.01 0c-5.39,0.21 -10.78,-0.46 -15.92,-1.98 19.2,-10.23 26.84,-29.24 27.2,-30.17 0.81,-2.09 -0.22,-4.45 -2.31,-5.27 -2.11,-0.82 -4.45,0.21 -5.29,2.3 -0.08,0.22 -8.72,21.41 -29.98,28.75l-0.1 -0.05 -1.76 0.72c-1.16,0.48 -2.32,0.92 -3.5,1.33 -8.19,2.92 -16.78,4.4 -25.56,4.4 -8.7,0 -17.24,-1.46 -25.38,-4.32 -1.63,-0.58 -3.28,-1.11 -4.93,-1.62 -0.52,-0.16 -1.06,-0.3 -1.59,-0.44 -1.12,-0.32 -2.25,-0.66 -3.39,-0.95 -0.63,-0.16 -1.27,-0.3 -1.91,-0.45 -1.04,-0.24 -2.07,-0.5 -3.12,-0.72 -0.68,-0.14 -1.36,-0.26 -2.04,-0.39 -1,-0.2 -2.01,-0.39 -3.02,-0.56 -0.71,-0.12 -1.43,-0.21 -2.14,-0.31 -0.98,-0.14 -1.96,-0.3 -2.96,-0.42 -0.73,-0.09 -1.46,-0.15 -2.19,-0.23 -0.98,-0.1 -1.96,-0.2 -2.93,-0.28 -0.74,-0.06 -1.48,-0.09 -2.22,-0.14 -0.97,-0.06 -1.94,-0.12 -2.91,-0.15 -0.76,-0.03 -1.52,-0.04 -2.27,-0.05 -0.66,-0.01 -1.31,-0.04 -1.97,-0.04l-0.85 0.02c-0.92,0.01 -1.84,0.04 -2.77,0.06 -0.86,0.03 -1.72,0.05 -2.58,0.1 -0.76,0.03 -1.51,0.09 -2.27,0.15 17.54,-14.28 19.96,-31.43 20.09,-32.44 0.28,-2.22 -1.3,-4.25 -3.52,-4.54 -2.22,-0.27 -4.27,1.28 -4.56,3.5 -0.15,1.12 -3.74,24.94 -34.8,37.29l-1.43 0.37c-1.12,0.31 -2.22,0.67 -3.33,1.01 -0.61,0.2 -1.23,0.37 -1.85,0.57 -1.72,0.57 -3.43,1.17 -5.12,1.82 -1.29,0.49 -2.6,0.91 -3.91,1.28l-0.98 0.25c-1.06,0.28 -2.11,0.53 -3.18,0.74l-0.91 0.16c-1.16,0.2 -2.31,0.36 -3.49,0.48l-0.65 0.06c-1.37,0.12 -2.74,0.18 -4.12,0.19l-0.15 0c-1.41,0 -2.8,-0.09 -4.19,-0.21 -0.89,-0.09 -1.8,-0.19 -2.7,-0.33l-1.01 -0.15c-1.1,-0.19 -2.2,-0.4 -3.31,-0.65l-0.57 -0.13c-8.99,-2.21 -17.18,-6.89 -23.74,-13.8 -9.35,-9.85 -14.1,-22.76 -13.38,-36.38 1.37,-26.03 23.64,-46.87 49.85,-46.34l0.86 0.02c25.63,0.93 49.51,-9.28 65.48,-27.97 14.53,-17.02 35.69,-26.78 58.06,-26.78 32.11,0 60.53,20.11 71.53,49.71 -28.14,-6.26 -48.15,11.23 -49.07,12.05 -1.67,1.5 -1.81,4.06 -0.32,5.74 0.8,0.9 1.92,1.37 3.04,1.37 0.96,0 1.93,-0.34 2.71,-1.03 0.84,-0.74 20.99,-18.17 48.28,-8.32 16.95,8.08 27.66,24.69 27.96,43.39 0.38,22.89 -15.47,42.73 -36.88,48.26zm-4.84 9.23l-1.41 9.13 -115.43 0c-2.25,0 -4.07,1.82 -4.07,4.07 0,2.25 1.82,4.07 4.07,4.07l114.18 0 -1.61 10.43 -186.45 0 -4.28 -27.72 0.35 0.04c0.69,0.09 1.38,0.15 2.08,0.2 3.33,0.3 6.63,0.3 9.87,0.02l0.3 -0.03c3.25,-0.3 6.45,-0.88 9.57,-1.74l0.85 -0.24c1.42,-0.41 2.84,-0.86 4.23,-1.38 4.23,-1.08 8.12,-2.33 11.7,-3.73 21.63,-5.69 44.5,-4.86 65.52,2.55 9.01,3.17 18.47,4.78 28.09,4.78 10.48,0 20.7,-1.9 30.41,-5.65 6.33,3.04 13.15,4.89 20.13,5.46 2.31,0.19 4.64,0.24 6.96,0.15l0.05 0 0.04 -0.01c1.6,-0.06 3.2,-0.2 4.81,-0.42zm49.87 -57.62c-0.34,-21.26 -12.2,-40.19 -31.09,-49.86 -10.38,-36.04 -43.5,-61.05 -81.19,-61.05 -24.75,0 -48.17,10.8 -64.25,29.64 -14.35,16.79 -35.83,25.95 -59,25.11l-1 -0.02c-30.39,-0.56 -56.54,23.69 -58.14,54.06 -0.83,15.86 4.71,30.92 15.61,42.41 7.16,7.54 15.99,12.81 25.68,15.57l5.8 37.63 200.42 0 5.81 -37.7c24.12,-7.04 41.78,-29.69 41.35,-55.78z"/>
   <path class="fil4" d="M905.4 379.46c-5.42,-1.32 -10.93,-2.35 -16.51,-2.78 -15.52,-1.28 -31.02,0.61 -46.17,4.79 -30.59,8.29 -56.47,31.54 -71.06,59.19 -7.09,13.92 -12.67,28.57 -15.99,43.52 -2.2,9.01 -4.11,17.76 -5.98,26.5 -12.49,-8.57 -26.93,-13.74 -41.09,-16.12 -19.91,-3.44 -40.19,-2.79 -59.86,2.25 -19.65,4.84 -37.8,14.92 -52.77,28.02 -11.76,10.4 -21.53,22.59 -29.52,35.7 -7.02,-14.37 -17.34,-26.9 -29.88,-36.3 -15.8,-12.01 -35.58,-19.25 -54.96,-17.69 19.29,1.52 36.99,10.36 50.5,23.02 13.49,12.73 23.17,29.15 27.63,46.54l3.51 13.62 7.75 -12.34c9.67,-15.39 21.28,-29.37 35.15,-40.37 14.01,-10.72 29.89,-18.75 46.91,-22.41 16.84,-3.84 34.97,-3.55 52.01,-0.58 16.96,3.06 32.77,10.38 43.47,22.35l13.23 14.81 4.3 -19.57c3.13,-14.22 5.82,-29.05 9.09,-42.83 2.84,-13.79 7.84,-26.76 13.74,-39.1 11.98,-24.66 32.8,-43.89 58.7,-52.92 19.52,-6.42 41.37,-8.91 61.53,-4.15 -1.18,-4.42 -2.42,-8.81 -3.74,-13.17z"/>
   <path class="fil4" d="M94.15 506.22c9.89,-23.82 22.76,-46.22 39.17,-65.91 16.66,-19.83 37.4,-36.37 61.83,-48.77 -27.12,4.27 -52.99,18.29 -73.36,37.81 -9.85,9.26 -18.37,19.75 -25.86,30.91 -1.24,13.06 -1.93,26.27 -1.93,39.65 0,2.11 0.13,4.2 0.16,6.31z"/>
  </g>
 </g>
</svg>
