<?xml version="1.0" encoding="UTF-8"?>
<!DOCTYPE svg PUBLIC "-//W3C//DTD SVG 1.1//EN" "http://www.w3.org/Graphics/SVG/1.1/DTD/svg11.dtd">
<!-- Creator: CorelDRAW (Evaluation Version) -->
<svg xmlns="http://www.w3.org/2000/svg" xml:space="preserve" width="5.76389in" height="5.25in" version="1.1" style="shape-rendering:geometricPrecision; text-rendering:geometricPrecision; image-rendering:optimizeQuality; fill-rule:evenodd; clip-rule:evenodd"
viewBox="0 0 5763.89 5250"
 xmlns:xlink="http://www.w3.org/1999/xlink"
 xmlns:xodm="http://www.corel.com/coreldraw/odm/2003">
 <defs>
  <style type="text/css">
   <![CDATA[
    .fil4 {fill:#FEFEFE;fill-rule:nonzero}
    .fil2 {fill:#EEC48B;fill-rule:nonzero}
    .fil7 {fill:#E8E7E8;fill-rule:nonzero}
    .fil0 {fill:#E6AD5D;fill-rule:nonzero}
    .fil1 {fill:#D6853D;fill-rule:nonzero}
    .fil8 {fill:#D2D4D5;fill-rule:nonzero}
    .fil5 {fill:#4D4C4E;fill-rule:nonzero}
    .fil6 {fill:#363435;fill-rule:nonzero}
    .fil3 {fill:#282828;fill-rule:nonzero}
   ]]>
  </style>
 </defs>
 <g id="Layer_x0020_1">
  <metadata id="CorelCorpID_0Corel-Layer"/>
  <g id="_1523217623472">
   <path class="fil0" d="M4999.67 2583.26c0,1121.88 -909.45,2031.36 -2031.35,2031.36 -1121.88,0 -2031.33,-909.48 -2031.33,-2031.36 0,-1121.9 909.45,-2031.36 2031.33,-2031.36 1121.9,0 2031.35,909.46 2031.35,2031.36z"/>
   <path class="fil1" d="M3134.91 3802.91c-69.53,-7.42 -90.36,-41.17 -90.36,-88.17 0,-21.84 4.86,-48.52 12.15,-77.64l99.49 -463.44c4.85,-19.43 4.85,-38.83 4.85,-58.24 0,-60.84 -20.78,-118.63 -53.6,-167.09 80.41,54.39 143.76,151.01 143.76,257.26 0,19.4 0,38.83 -4.85,58.24l-99.49 463.45c-7.07,28.33 -11.69,54.17 -11.96,75.65z"/>
   <path class="fil1" d="M3641.49 3421.14c50.99,-228.09 162.58,-502.26 298.42,-502.26 53.85,0 74.41,46.42 81.52,91.23 -110.55,9.55 -204.19,198.24 -261.02,390.75 -36.9,12.55 -76.71,19.82 -118.91,20.27z"/>
   <path class="fil1" d="M2566.56 2940.7l108.53 -508.49 112.68 -15.22 -95.52 447.47c-43.02,21.47 -85.37,47.7 -125.69,76.23z"/>
   <path class="fil2" d="M4998.53 2514.04c-0.84,-24.74 -2.11,-49.25 -3.8,-73.76 18.08,13.64 29.82,34.76 29.82,63.69 0,2.67 -0.31,5.17 -0.39,7.78l-1.63 -0.11c-7.5,0 -15.59,0.7 -24.01,2.41z"/>
   <path class="fil1" d="M4830.84 2812.13l-109.57 0 41.22 -191.7c33.98,-162.58 116.44,-198.97 169.88,-198.97 23.34,0 45.57,6.18 62.36,18.81 1.69,24.51 2.95,49.02 3.8,73.76 -51.61,10.28 -116.67,56.81 -145.87,196.55l-21.82 101.54z"/>
   <path class="fil1" d="M1469.2 3786.65c-112.34,-58.21 -142.48,-191.98 -142.48,-418.88 0,-431.92 191.64,-1048.2 490.13,-1048.2 96.68,0 137.84,51.72 155.14,100.15 -18.31,-6.15 -39.57,-10 -64.98,-10 -298.45,0 -490.15,616.31 -490.15,1048.2 0,147.25 12.86,254.99 52.34,328.72z"/>
   <path class="fil1" d="M3722.84 3832.35c-60.09,-25.75 -108.03,-82.24 -108.03,-190.43 0,-29.09 2.39,-65.51 7.25,-104.31 38.97,-4.94 80.56,-14.24 122.59,-27.13 145.56,-6.49 261.83,-93.19 323.02,-200.94 62.17,-72.69 102.8,-161.67 102.8,-266.94 0,-48.02 -9.89,-88.28 -27.18,-122.42 76,39.95 117.34,110.07 117.34,212.61 0,296.04 -317.85,465.83 -548.41,494.98 -4.83,38.8 -7.24,75.22 -7.24,104.31 0,40.1 6.54,73.18 17.86,100.27z"/>
   <path class="fil2" d="M3926.97 4415.34c-17.64,-1.1 -34.07,-7.08 -47.99,-15.81 18.62,-9.35 37.15,-19.02 55.43,-28.93 -4.11,14.01 -6.63,28.89 -7.44,44.73z"/>
   <path class="fil1" d="M3878.98 4399.53c-26.09,-16.34 -43.39,-42.29 -43.39,-63.66 0,-14.54 1.91,-28.02 4.61,-41.08 52,-74.88 142.39,-121.27 251.43,-160.25l-20.64 92.13 -0.03 0.06c-68.54,35.91 -118.22,81.34 -136.55,143.87 -18.28,9.91 -36.81,19.57 -55.43,28.93z"/>
   <path class="fil1" d="M3083.78 4115.48c-131.69,0 -224.61,-41.02 -269.67,-126.64 47.54,24.55 107.91,36.45 179.51,36.45 79.21,0 173.17,-56.86 263.94,-130.82 27.86,-0.4 58.13,-12.16 89.38,-30.16 16.09,26.51 35.43,50.46 57.85,71.43 -107.38,96.43 -225,179.74 -321,179.74z"/>
   <path class="fil1" d="M4483.07 3936.28l218.77 -1027.14 179.54 0 1.21 -6.84 91.99 0c-5.17,32.59 -11.04,64.97 -17.69,97.01l-164.88 0 -159.29 747.86c-46.22,65.98 -96.09,129.19 -149.64,189.11z"/>
   <path class="fil1" d="M3736.51 4115.48c-133.21,0 -231.01,-58.32 -290.68,-147 53.85,35.75 120.75,56.81 200.52,56.81 120.99,0 229.52,-37.46 325.72,-96.82 58.94,-18.87 126.28,-58.97 187.77,-112.97l-33.72 159.21c-26.26,20.05 -53.44,38.58 -81.88,54.98 -61.02,20.14 -117.29,41.73 -165.93,67.81 -45.34,11.23 -92.43,17.97 -141.8,17.97z"/>
   <path class="fil1" d="M2105.98 2844.02c-38.83,0 -92.24,-9.69 -138.32,-63.06 14.21,-3.99 27.52,-14.06 39.74,-27.38 2.78,0.12 5.7,0.29 8.4,0.29 123.74,0 169.85,-94.6 169.85,-223.2 0,-66.19 -15.98,-120.46 -43.33,-164.85 81.23,51.61 133.49,133.93 133.49,255.01 0,128.6 -46.1,223.2 -169.82,223.2z"/>
   <path class="fil1" d="M2426.25 4115.48l-349.42 0 19.24 -90.19 240.02 0 208.66 -980.24c39.4,-27.55 75.98,-43.35 119.33,-48.55l-7.32 34.37c17.3,-12.24 35.09,-23.89 53.04,-35.18 44.13,6.01 77.33,38.78 90.5,90.22 -4.94,-0.7 -9.77,-1.65 -14.94,-1.65 -58.24,0 -101.93,16.98 -150.48,50.99l-208.62 980.24z"/>
   <path class="fil1" d="M1648.32 4126.57c-33.67,-28.8 -66.41,-58.59 -98.11,-89.54 151.43,-10.7 327.57,-57.5 460.25,-190.12 5.28,-2.75 10.83,-5.09 15.98,-8.03l-39.76 186.42 1.18 0c-108.53,65.25 -230.06,92.71 -339.54,101.28z"/>
   <path class="fil3" d="M2054.81 3542.59c-89.78,155.3 -266.91,232.94 -453.74,232.94 -262.05,0 -320.29,-135.88 -320.29,-453.74 0,-431.9 191.69,-1048.21 490.14,-1048.21 155.29,0 167.42,133.46 167.42,172.27 0,60.66 -46.1,181.99 -106.76,198.97 46.1,53.37 99.49,63.09 138.31,63.09 123.74,0 169.85,-94.63 169.85,-223.23 0,-235.36 -196.54,-325.14 -422.19,-325.14 -645.43,0 -817.71,686.68 -817.71,1215.64 0,497.42 283.9,618.74 531.39,618.74 228.09,0 550.8,-72.79 679.39,-427.05l-55.8 -24.27zm1055.49 -414.92c4.85,-19.41 4.85,-38.82 4.85,-58.23 0,-162.57 -148.02,-303.3 -279.04,-303.3 -104.33,0 -215.95,58.24 -315.43,128.6l131.03 -613.88 -359.11 48.53 -351.83 1649.96 349.41 0 208.67 -980.27c48.53,-33.97 92.2,-50.96 150.43,-50.96 65.51,0 111.61,55.8 111.61,143.16 0,19.41 -2.43,41.24 -7.28,63.09l-92.21 436.75c-9.7,46.1 -14.56,84.93 -14.56,123.75 0,181.98 111.61,264.48 300.87,264.48 189.27,0 463.45,-322.72 575.06,-434.33l-82.49 0c-97.06,77.65 -223.23,213.53 -320.29,213.53 -94.63,0 -121.33,-36.4 -121.33,-89.78 0,-21.84 4.86,-48.53 12.14,-77.65l99.48 -463.45z"/>
   <path class="fil3" d="M3568.91 3595.98c0,-29.11 2.43,-65.52 7.28,-104.33 230.5,-29.12 548.37,-198.97 548.37,-494.99 0,-169.85 -111.62,-252.35 -310.58,-252.35 -441.61,0 -572.63,541.09 -572.63,849.24 0,208.67 126.17,385.8 359.11,385.8 313.01,0 545.94,-245.07 684.25,-494.99l-109.19 0c-84.93,179.56 -288.75,320.29 -407.64,320.29 -94.63,0 -198.97,-48.53 -198.97,-208.67zm410.06 -587.19c-2.42,172.28 -160.15,363.96 -383.37,366.39 50.96,-228.09 162.57,-502.27 298.45,-502.27 72.79,0 84.92,84.93 84.92,135.88zm1108.88 -485.29c4.85,-29.11 7.28,-60.66 7.28,-99.48 0,-157.72 -138.3,-262.06 -286.32,-262.06 -160.14,0 -368.81,65.52 -441.61,412.49l-293.59 1385.48c-230.52,70.37 -417.35,140.73 -417.35,363.96 0,157.72 138.3,262.06 286.32,262.06 157.72,0 359.11,-65.52 434.33,-412.49l279.03 -1310.27 179.56 0 16.98 -97.06 -177.13 0 41.25 -191.69c33.97,-162.57 116.47,-198.96 169.85,-198.96 48.52,0 92.2,26.69 92.2,82.5 0,21.83 -2.43,41.25 -4.85,65.51l114.04 0zm-1298.14 1766.43c0,-131.02 114.04,-198.96 266.91,-249.92l-31.54 140.73c-31.54,143.16 -87.36,189.26 -138.31,189.26 -53.37,0 -97.06,-46.1 -97.06,-80.07z"/>
   <polygon class="fil4" points="1995.63,4179.35 1969.09,4179.35 2009.66,4256.08 2009.66,4299.51 2033.66,4299.51 2033.66,4257.26 2074.9,4179.35 2048.53,4179.35 2022.33,4234.78 2021.82,4234.78 "/>
   <path class="fil4" d="M2180.4 4228.7c0,-14.7 -4.56,-26.87 -14.02,-36.51 -9.3,-9.63 -21.46,-14.53 -36.33,-14.53 -14.87,0 -26.88,4.9 -36,14.53 -9.3,9.64 -13.86,21.81 -13.86,36.51l0 21.46c0,14.87 4.56,27.04 13.86,36.67 9.3,9.64 21.29,14.37 36,14.37 15.04,0 27.04,-4.73 36.33,-14.37 9.46,-9.63 14.02,-21.8 14.02,-36.67l0 -21.46zm-24 21.46c0,9.63 -2.36,17.41 -6.93,23.49 -4.73,5.92 -11.15,8.96 -19.43,8.96 -8.12,0 -14.37,-3.05 -18.93,-8.96 -4.56,-6.08 -6.93,-13.85 -6.93,-23.49l0 -21.81c0,-9.46 2.2,-17.07 6.76,-23.15 4.56,-5.91 10.82,-8.96 19.1,-8.96 8.11,0 14.54,3.04 19.26,8.96 4.74,6.09 7.1,13.87 7.1,23.15l0 21.81zm113.75 -70.81l0 79.6c0,7.94 -2.2,13.86 -6.42,17.74 -4.39,3.89 -10.31,5.92 -17.75,5.92 -7.43,0 -13.35,-2.03 -17.57,-5.92 -4.22,-3.89 -6.26,-9.8 -6.26,-17.74l0 -79.6 -24.17 0 0 79.77c0,13.35 4.39,23.83 13.18,31.1 8.79,7.26 20.45,10.98 34.81,10.98 14.37,0 26.03,-3.72 34.99,-10.98 8.95,-7.27 13.35,-17.74 13.35,-31.1l0 -79.77 -24.17 0z"/>
   <path class="fil4" d="M2362.46 4251.52c5.91,0 10.47,1.69 13.86,5.07 3.2,3.21 4.9,7.94 4.9,13.86l0 8.44c0,3.72 0.33,7.61 0.84,11.83 0.68,4.05 2.2,7.1 4.39,8.79l24.84 0 0 -1.69c-2.2,-1.86 -3.72,-4.57 -4.73,-8.12 -0.84,-3.72 -1.35,-7.27 -1.35,-10.64l0 -8.79c0,-7.1 -1.52,-13.19 -4.56,-18.09 -3.22,-4.89 -8.29,-8.44 -15.39,-10.48 6.26,-2.7 10.99,-6.42 14.2,-10.81 3.38,-4.56 4.9,-9.81 4.9,-16.06 0,-11.16 -3.89,-19.94 -11.49,-26.2 -7.78,-6.25 -18.43,-9.29 -32.28,-9.29l-45.3 0 0 120.17 24.17 0 0 -48 22.99 0zm-22.99 -53.58l21.13 0c6.59,0 11.49,1.7 14.87,4.9 3.21,3.22 4.91,7.61 4.91,13.02 0,5.75 -1.7,9.97 -4.91,12.85 -3.38,2.87 -8.45,4.22 -15.21,4.22l-20.79 0 0 -34.99z"/>
   <polygon class="fil4" points="2552.28,4179.35 2460.33,4179.35 2460.33,4197.93 2494.14,4197.93 2494.14,4299.51 2518.13,4299.51 2518.13,4197.93 2552.28,4197.93 "/>
   <path class="fil4" d="M2630.01 4299.51l24.34 0 -41.24 -120.17 -24.67 0 -41.25 120.17 24.34 0 8.11 -25.86 42.26 0 8.11 25.86zm-29.41 -92.11l0.51 0 14.88 47.66 -30.42 0 15.04 -47.66zm157.19 30.43l-45.29 0 0 16.73 21.29 0 0 22.14c-1.86,1.69 -4.39,3.05 -7.78,4.22 -3.37,1.19 -7.94,1.7 -13.52,1.7 -7.94,0 -14.2,-2.87 -18.94,-8.45 -4.72,-5.75 -7.1,-13.18 -7.1,-22.31l0 -25.19c0,-8.95 2.37,-16.22 6.77,-21.97 4.56,-5.58 10.47,-8.45 17.91,-8.45 6.93,0 12.34,1.86 15.89,5.58 3.72,3.72 5.74,8.79 6.08,15.04l22.82 0 0.17 -0.51c-0.17,-11.49 -4.23,-20.96 -12,-28.06 -7.77,-7.1 -18.93,-10.65 -33.63,-10.65 -14.04,0 -25.53,4.57 -34.48,13.69 -8.96,9.13 -13.52,20.96 -13.52,35.49l0 25.18c0,14.54 4.74,26.37 14.03,35.49 9.3,9.13 21.29,13.69 36,13.69 11.48,0 21.13,-1.86 28.56,-5.57 7.61,-3.55 13.18,-7.78 16.73,-12.51l0 -45.29z"/>
   <polygon class="fil4" points="2802.65,4179.35 2778.47,4179.35 2778.47,4299.51 2856.05,4299.51 2856.05,4280.92 2802.65,4280.92 "/>
   <polygon class="fil4" points="2895.62,4179.35 2871.45,4179.35 2871.45,4299.51 2895.62,4299.51 "/>
   <path class="fil4" d="M3016.72 4179.35l-24 0 0 81.97 -0.51 0 -48.51 -81.97 -24.17 0 0 120.17 24.17 0 0 -81.98 0.51 -0.17 48.5 82.14 24 0 0 -120.17zm96.34 48.84l-49.69 0 0 -30.25 57.97 0 0 -18.59 -82.14 0 0 120.17 82.31 0 0 -18.59 -58.13 0 0 -34.14 49.69 0 0 -18.59z"/>
   <polygon class="fil4" points="3275.51,4179.35 3251.51,4179.35 3251.51,4231.06 3202.5,4231.06 3202.5,4179.35 3178.32,4179.35 3178.32,4299.51 3202.5,4299.51 3202.5,4249.65 3251.51,4249.65 3251.51,4299.51 3275.51,4299.51 "/>
   <polygon class="fil4" points="3371.83,4228.19 3322.13,4228.19 3322.13,4197.93 3380.1,4197.93 3380.1,4179.35 3297.96,4179.35 3297.96,4299.51 3380.27,4299.51 3380.27,4280.92 3322.13,4280.92 3322.13,4246.78 3371.83,4246.78 "/>
   <path class="fil4" d="M3442.19 4251.52c5.92,0 10.48,1.69 13.86,5.07 3.21,3.21 4.91,7.94 4.91,13.86l0 8.44c0,3.72 0.33,7.61 0.84,11.83 0.68,4.05 2.2,7.1 4.39,8.79l24.84 0 0 -1.69c-2.2,-1.86 -3.72,-4.57 -4.73,-8.12 -0.85,-3.72 -1.35,-7.27 -1.35,-10.64l0 -8.79c0,-7.1 -1.52,-13.19 -4.56,-18.09 -3.22,-4.89 -8.29,-8.44 -15.39,-10.48 6.26,-2.7 10.99,-6.42 14.2,-10.81 3.39,-4.56 4.91,-9.81 4.91,-16.06 0,-11.16 -3.89,-19.94 -11.5,-26.2 -7.78,-6.25 -18.43,-9.29 -32.28,-9.29l-45.3 0 0 120.17 24.17 0 0 -48 22.98 0zm-22.98 -53.58l21.12 0c6.59,0 11.5,1.7 14.88,4.9 3.21,3.22 4.9,7.61 4.9,13.02 0,5.75 -1.69,9.97 -4.9,12.85 -3.38,2.87 -8.45,4.22 -15.21,4.22l-20.79 0 0 -34.99z"/>
   <polygon class="fil4" points="3580.63,4228.19 3530.94,4228.19 3530.94,4197.93 3588.91,4197.93 3588.91,4179.35 3506.77,4179.35 3506.77,4299.51 3589.08,4299.51 3589.08,4280.92 3530.94,4280.92 3530.94,4246.78 3580.63,4246.78 "/>
   <path class="fil3" d="M4439.3 1860.75l-17.12 -45.52 -3.18 -6.34c-35.07,-58.04 -104.68,-84.01 -158.02,-84.01 -50.35,0 -995.46,2.78 -995.52,2.78l-53.3 0.22 0 8.17 -1081.64 0c-273.43,0 -464.17,57.59 -553.82,92.04l-53.67 24.34c-36.02,16.35 -37.88,66.8 -3.17,85.75l8.74 4.75c8.96,4.86 92.74,49.11 270.34,102.23 27.88,8.31 58.04,16.85 90.59,25.47 89.51,23.64 186.33,44.98 287.86,63.43 317.19,57.56 677.91,86.71 1072.21,86.71l53.51 0 0 -109.2c6.8,0.96 14.15,1.52 22.02,1.52 42.12,0 71.91,-24.96 93.68,-43.21 6.06,-5.11 12.27,-10.36 18.95,-15.14 15.11,-10.84 24.54,-12.3 32.49,-12.3 11.34,0 23.67,1.71 41.17,5.67 9.15,2.08 18.64,4.54 28.95,7.19 53.12,13.59 125.9,32.24 249.87,32.24 126.92,0 209.96,-19.15 270.74,-33.17 28.89,-6.68 51.72,-11.93 67.11,-11.93 24.93,0 40.55,4.96 60.34,11.34 22.26,7.07 49.9,15.92 89.32,15.92 95.04,0 164.04,-76.04 164.04,-180.82 0,-9.41 -0.79,-18.91 -2.48,-28.14z"/>
   <path class="fil4" d="M3265.68 1789.57c0,0 -933.74,0 -1135.16,0 -366.52,0 -576.35,106.31 -576.35,106.31 0,0 498.02,271.39 1695.43,271.39l0 -117.51 16.09 -29.34 0 -230.84z"/>
   <path class="fil4" d="M1598.28 1877.12c-28.97,11.12 -44.11,18.76 -44.11,18.76 0,0 498.02,271.39 1695.43,271.39l0 -74.66 -0.68 7.52c-912.48,0 -1435.33,-145 -1650.64,-223.01z"/>
   <path class="fil5" d="M3265.68 1781.17l0 247.6c0,0 9.8,30.77 59.44,30.77 49.68,0 74.86,-70.65 145.14,-70.65 70.28,0 131.13,45.13 319.99,45.13 188.86,0 278.01,-45.13 337.82,-45.13 65.76,0 86.74,27.29 149.69,27.29 62.93,0 110.53,-50.34 110.53,-127.3 0,-76.94 -76.94,-110.49 -127.31,-110.49 -50.35,0 -995.3,2.78 -995.3,2.78z"/>
   <path class="fil6" d="M4277.74 1974.22c-62.93,0 -83.9,-27.26 -149.66,-27.26 -59.81,0 -148.96,45.12 -337.82,45.12 -188.86,0 -249.71,-45.12 -319.99,-45.12 -70.28,0 -95.46,70.65 -145.14,70.65l-1.46 -0.03c-32.27,-0.39 -57.98,-27.06 -57.98,-59.3l0 70.5c0,0 9.8,30.77 59.44,30.77 49.68,0 74.86,-70.65 145.14,-70.65 70.28,0 131.13,45.13 319.99,45.13 188.86,0 278.01,-45.13 337.82,-45.13 65.76,0 86.74,27.29 149.66,27.29 62.95,0 110.55,-50.34 110.55,-127.3 0,-6.54 -0.62,-12.75 -1.69,-18.7 -8.59,63.63 -52.51,104.03 -108.86,104.03z"/>
   <path class="fil7" d="M3423.06 1837.84c-17.38,0 -31.47,14.09 -31.47,31.48 0,17.37 14.09,31.47 31.47,31.47 17.39,0 31.48,-14.09 31.48,-31.47 0,-17.39 -14.09,-31.48 -31.48,-31.48z"/>
   <path class="fil7" d="M3794.44 1837.84c-17.39,0 -31.48,14.09 -31.48,31.48 0,17.37 14.09,31.47 31.48,31.47 17.37,0 31.47,-14.09 31.47,-31.47 0,-17.39 -14.1,-31.48 -31.47,-31.48z"/>
   <path class="fil7" d="M4165.83 1837.84c-17.37,0 -31.47,14.09 -31.47,31.48 0,17.37 14.1,31.47 31.47,31.47 17.39,0 31.48,-14.09 31.48,-31.47 0,-17.39 -14.09,-31.48 -31.48,-31.48z"/>
   <path class="fil4" d="M3521.2 950.22c-44.59,-168.69 -198.24,-293.06 -380.96,-293.06 -119.95,0 -227.39,53.61 -299.63,138.18 -75.53,88.4 -188.69,134.19 -304.91,130.01l-4.57 -0.11c-138.49,-2.53 -257.24,107.59 -264.5,245.94 -7.9,150 111.38,274.08 259.64,274.08 32.49,0 63.52,-5.96 92.16,-16.82 125.18,-47.54 264.53,-50.01 390.81,-5.48 40.99,14.43 85.1,22.3 131.01,22.3 53.1,0 103.7,-10.56 149.92,-29.59 39,20.38 83.7,31.36 131.19,29.37 139.27,-5.81 251.31,-124.76 249.04,-264.14 -1.66,-102.06 -62.28,-189.59 -149.19,-230.67z"/>
   <path class="fil4" d="M2454.17 989.59c-26.28,6.74 -51.05,20.31 -71.35,38.78 -20.36,18.42 -36.2,41.84 -45.32,67.45 -9.04,25.55 -11.49,53.43 -4.46,78.85 9.65,-24.43 19.94,-45.82 32.71,-65.17 12.63,-19.37 27.35,-36.5 43.94,-51.64 16.62,-15.11 35.09,-28.16 55.51,-38.97 20.47,-11.04 42.65,-19.26 67.84,-27.04 -24.76,-8.82 -52.65,-8.96 -78.87,-2.25z"/>
   <path class="fil4" d="M3014.37 732.08c-41.1,12.94 -79.46,35.63 -111.3,65.26 -7.78,7.61 -15.48,15.3 -22.52,23.58l-19.57 22.78c-12.98,14.72 -27.07,28.44 -41.52,42.01 -29.35,26.76 -61.84,50.34 -96.74,73.45 41.17,-7.69 80.7,-24.96 115.88,-48.91 17.8,-11.74 34.37,-25.41 49.7,-40.35 7.52,-7.24 15.19,-16.03 21.73,-22.83 6.4,-7.21 13.34,-13.92 20.3,-20.57 28.16,-26.35 60.34,-48.11 95.41,-65.54 35.38,-16.99 73.57,-28.81 114.5,-37.29 -41.05,-8.09 -84.85,-4.61 -125.88,8.42z"/>
   <path class="fil4" d="M3421.35 1445.04c-47.49,1.99 -92.19,-8.99 -131.19,-29.37 -46.22,19.04 -96.82,29.59 -149.92,29.59 -45.91,0 -90.02,-7.87 -131.01,-22.3 -126.28,-44.54 -265.63,-42.06 -390.81,5.48 -28.64,10.86 -59.67,16.82 -92.16,16.82 -20.53,0 -40.43,-2.58 -59.61,-7.1l27.83 180.46 947.67 0 27.86 -180.46c-15.75,3.76 -31.99,6.18 -48.66,6.88z"/>
   <path class="fil8" d="M2526.27 1445.26c32.49,0 63.52,-5.96 92.16,-16.82 125.18,-47.54 264.53,-50.01 390.81,-5.48 40.99,14.43 85.1,22.3 131.01,22.3 53.1,0 103.7,-10.56 149.92,-29.59 39,20.38 83.7,31.36 131.19,29.37 139.27,-5.81 251.31,-124.76 249.04,-264.14 -1.66,-102.06 -62.28,-189.59 -149.19,-230.67 -0.73,-2.75 -1.74,-5.39 -2.53,-8.14 -24.74,-2.52 -49.61,-3.87 -74.55,-3.87 -45.88,0 -90.92,11.96 -130.77,34.7l-45.43 25.95c0,0 240.56,-4.33 255.72,160.36 18.39,199.69 -112.68,186.36 -112.68,186.36l52.03 -99.69c0,0 -158.2,119.19 -292.56,117 -134.33,-2.16 -205.85,-75.81 -346.72,-56.33l39.03 -110.52c0,0 -112.71,160.36 -247.04,160.36 0,0 -163.61,55.26 -273.07,-54.16 -60.26,-60.29 -72.53,-122.5 -71.37,-166.28 -2.25,11.51 -3.99,23.2 -4.63,35.21 -7.9,150 111.38,274.08 259.64,274.08z"/>
   <path class="fil8" d="M3421.35 1445.04c-47.49,1.99 -92.19,-8.99 -131.19,-29.37 -46.22,19.04 -96.82,29.59 -149.92,29.59 -45.91,0 -90.02,-7.87 -130.99,-22.3 -126.27,-44.54 -265.65,-42.06 -390.83,5.48 -28.64,10.86 -59.67,16.82 -92.16,16.82 -20.53,0 -40.43,-2.58 -59.61,-7.1l11.73 76.12c15.56,2.9 31.5,4.66 47.87,4.66 34.09,0 66.61,-6.54 96.4,-18.47 123.49,-49.42 261.13,-48.07 386.57,-3.85 29.5,10.42 60.67,17.27 92.94,20.36l0 14.52 -228.62 0c-11.01,0 -19.94,8.95 -19.94,19.96 0,11.01 8.93,19.96 19.94,19.96l183.58 0c24.85,0 45.04,20.16 45.04,45.04l339.98 0 6.91 -45.04 6.01 -39.61 2.69 -17.58 0.54 -0.11 11.71 -75.95c-15.75,3.76 -31.99,6.18 -48.66,6.88z"/>
   <path class="fil8" d="M3518.56 941.72c-42.2,-146.04 -166.43,-257.07 -319.65,-279.95l2.58 4.85c0,0 199.37,82.32 199.37,265.8 0,0 52.79,-2.59 117.7,9.3z"/>
   <path class="fil3" d="M3469.72 1417.69l-4.34 1.07c-7.5,1.8 -15,3.2 -22.44,4.27 -6.34,0.87 -12.72,1.43 -19.2,1.8l-3.2 0.28 -0.06 0c-26.4,1.04 -52.8,-2.28 -77.98,-9.71 94.09,-50.12 131.52,-143.26 133.29,-147.78 3.99,-10.25 -1.07,-21.79 -11.31,-25.8 -10.31,-4.04 -21.81,1.01 -25.89,11.26 -0.39,1.06 -42.71,104.87 -146.91,140.87l-0.51 -0.25 -8.59 3.54c-5.67,2.33 -11.37,4.52 -17.13,6.54 -40.16,14.32 -82.19,21.56 -125.21,21.56 -42.65,0 -84.49,-7.13 -124.36,-21.17 -7.98,-2.84 -16.04,-5.45 -24.13,-7.92 -2.56,-0.79 -5.19,-1.46 -7.78,-2.19 -5.5,-1.57 -11.03,-3.21 -16.59,-4.64 -3.11,-0.78 -6.23,-1.46 -9.34,-2.19 -5.09,-1.2 -10.17,-2.46 -15.31,-3.53 -3.31,-0.7 -6.65,-1.3 -10,-1.94 -4.91,-0.95 -9.85,-1.91 -14.78,-2.72 -3.5,-0.59 -7.01,-1.04 -10.5,-1.54 -4.8,-0.7 -9.63,-1.46 -14.49,-2.05 -3.57,-0.42 -7.16,-0.76 -10.73,-1.13 -4.8,-0.47 -9.57,-0.98 -14.37,-1.37 -3.62,-0.28 -7.24,-0.45 -10.9,-0.67 -4.74,-0.28 -9.49,-0.57 -14.23,-0.73 -3.71,-0.14 -7.42,-0.17 -11.12,-0.22 -3.23,-0.06 -6.43,-0.22 -9.66,-0.22l-4.19 0.11c-4.52,0.02 -9.04,0.17 -13.56,0.28 -4.23,0.15 -8.42,0.26 -12.63,0.48 -3.71,0.17 -7.41,0.45 -11.12,0.73 85.95,-69.97 97.8,-153.96 98.44,-158.96 1.38,-10.89 -6.37,-20.8 -17.24,-22.24 -10.89,-1.32 -20.92,6.29 -22.35,17.19 -0.76,5.47 -18.31,122.17 -170.49,182.69l-7 1.82c-5.48,1.54 -10.9,3.25 -16.34,4.94 -3.01,0.96 -6.04,1.8 -9.04,2.78 -8.42,2.78 -16.82,5.73 -25.11,8.91 -6.32,2.38 -12.74,4.43 -19.17,6.29l-4.78 1.23c-5.17,1.35 -10.33,2.59 -15.58,3.6l-4.47 0.78c-5.67,1.01 -11.34,1.78 -17.09,2.37l-3.18 0.31c-6.69,0.59 -13.39,0.89 -20.16,0.92l-0.76 0.02c-6.91,0 -13.73,-0.44 -20.53,-1.04 -4.38,-0.42 -8.82,-0.95 -13.25,-1.6l-4.94 -0.76c-5.39,-0.9 -10.79,-1.94 -16.23,-3.21l-2.78 -0.65c-44.06,-10.83 -84.19,-33.78 -116.33,-67.64 -45.8,-48.24 -69.07,-111.53 -65.56,-178.22 6.71,-127.54 115.83,-229.61 244.26,-227.02l4.21 0.11c125.6,4.57 242.58,-45.46 320.81,-137.02 71.2,-83.37 174.88,-131.19 284.44,-131.19 157.33,0 296.55,98.53 350.46,243.56 -137.87,-30.67 -235.93,55.03 -240.42,59.02 -8.2,7.33 -8.87,19.88 -1.57,28.11 3.93,4.41 9.41,6.69 14.91,6.69 4.72,0 9.46,-1.65 13.26,-5.02 4.12,-3.65 102.82,-89.04 236.56,-40.78 83.03,39.59 135.51,120.94 136.97,212.56 1.88,112.15 -75.79,209.37 -180.7,236.46zm-23.72 45.21l-6.9 44.76 -565.54 0c-11.01,0 -19.94,8.93 -19.94,19.96 0,11.01 8.93,19.94 19.94,19.94l559.39 0 -7.86 51.1 -913.48 0 -20.94 -135.81 1.71 0.17c3.37,0.42 6.76,0.76 10.2,1.01 16.34,1.49 32.48,1.49 48.38,0.11l1.49 -0.14c15.92,-1.46 31.59,-4.32 46.92,-8.51l4.18 -1.18c6.96,-2.02 13.91,-4.21 20.73,-6.76 20.72,-5.28 39.79,-11.43 57.31,-18.25 105.97,-27.86 218.01,-23.81 321.03,12.5 44.14,15.55 90.48,23.44 137.64,23.44 51.33,0 101.4,-9.32 148.99,-27.69 31,14.91 64.44,23.95 98.64,26.73 11.32,0.93 22.72,1.19 34.11,0.71l0.22 0 0.2 -0.03c7.83,-0.31 15.7,-1.01 23.59,-2.04zm244.35 -282.31c-1.69,-104.14 -59.81,-196.92 -152.3,-244.28 -50.88,-176.56 -213.11,-299.1 -397.8,-299.1 -121.24,0 -236,52.9 -314.8,145.19 -70.28,82.25 -175.52,127.15 -289.04,123.02l-4.89 -0.11c-148.91,-2.75 -277,116.05 -284.84,264.85 -4.07,77.69 23.08,151.48 76.46,207.79 35.07,36.95 78.34,62.75 125.79,76.31l28.44 184.34 981.9 0 28.47 -184.71c118.16,-34.5 204.7,-145.48 202.59,-273.3z"/>
   <path class="fil4" d="M4912.32 1993.12c-26.56,-6.46 -53.54,-11.52 -80.87,-13.59 -76.04,-6.29 -151.96,2.98 -226.2,23.47 -149.86,40.61 -276.67,154.52 -348.13,289.98 -34.76,68.17 -62.08,139.97 -78.33,213.2 -10.79,44.14 -20.16,87.04 -29.31,129.87 -61.19,-41.98 -131.94,-67.31 -201.33,-78.98 -97.55,-16.83 -196.89,-13.68 -293.27,11.03 -96.25,23.72 -185.18,73.09 -258.52,137.28 -57.59,50.96 -105.46,110.69 -144.63,174.93 -34.4,-70.42 -84.96,-131.8 -146.38,-177.82 -77.38,-58.85 -174.31,-94.32 -269.28,-86.68 94.51,7.44 181.22,50.76 247.44,112.79 66.09,62.39 113.49,142.84 135.37,228.03l17.18 66.74 37.97 -60.45c47.37,-75.39 104.23,-143.91 172.18,-197.79 68.65,-52.53 146.43,-91.88 229.83,-109.82 82.5,-18.81 171.31,-17.41 254.81,-2.86 83.12,14.97 160.56,50.85 212.98,109.51l64.83 72.58 21.09 -95.86c15.33,-69.69 28.5,-142.31 44.5,-209.86 13.93,-67.56 38.41,-131.11 67.33,-191.56 58.71,-120.82 160.73,-215 287.58,-259.25 95.64,-31.45 202.7,-43.67 301.46,-20.36 -5.79,-21.64 -11.85,-43.16 -18.31,-64.52z"/>
   <path class="fil4" d="M937.75 2614.2c48.46,-116.7 111.53,-226.46 191.89,-322.91 81.6,-97.15 183.24,-178.19 302.92,-238.95 -132.88,20.94 -259.62,89.6 -359.39,185.23 -48.27,45.37 -90.02,96.76 -126.72,151.43 -6.06,63.96 -9.46,128.69 -9.46,194.25 0,10.36 0.61,20.61 0.76,30.94z"/>
  </g>
 </g>
</svg>
